<svg width="24" height="24" viewBox="0 0 24 24" fill="none" xmlns="http://www.w3.org/2000/svg">
<path d="M0 12.2976C0 17.533 3.35534 21.984 8.0314 23.6185C8.66113 23.7776 8.56509 23.3281 8.56509 23.024V20.9473C4.92896 21.3735 4.78354 18.9662 4.53796 18.566C4.04405 17.7232 2.88018 17.5078 3.22683 17.1072C4.05549 16.681 4.89878 17.2151 5.87515 18.6598C6.58216 19.7066 7.96143 19.531 8.66159 19.3554C8.81387 18.7256 9.14177 18.1636 9.59131 17.7255C5.82622 17.0509 4.25488 14.752 4.25488 12.0168C4.25488 10.6915 4.69253 9.47183 5.54954 8.48814C5.00396 6.86558 5.60122 5.47945 5.68079 5.2732C7.23796 5.13281 8.85366 6.38768 8.97988 6.48601C9.86479 6.24729 10.8741 6.12061 12.0027 6.12061C13.1383 6.12061 14.1521 6.25186 15.0421 6.49287C15.3439 6.26329 16.8448 5.18631 18.2922 5.31756C18.3695 5.52381 18.9526 6.8793 18.4399 8.47854C19.3088 9.46451 19.7511 10.6938 19.7511 12.0237C19.7511 14.763 18.1706 17.0647 14.3936 17.7296C15.0233 18.3525 15.4143 19.2141 15.4143 20.1694V23.1854C15.4354 23.4264 15.4143 23.6656 15.8172 23.6656C20.561 22.0663 23.9771 17.5823 23.9771 12.2999C23.9771 5.67564 18.6082 0.311768 11.989 0.311768C5.36433 0.309482 0 5.67381 0 12.2976V12.2976Z" fill="#282825"/>
</svg>
