<svg width="18" height="18" viewBox="0 0 18 18" fill="none" xmlns="http://www.w3.org/2000/svg">
<path d="M10.4533 12.595C10.4181 12.5601 10.3705 12.5406 10.3209 12.5406C10.2713 12.5406 10.2237 12.5601 10.1885 12.595L7.46504 15.3185C6.2041 16.5794 4.07598 16.713 2.68379 15.3185C1.28926 13.9239 1.42285 11.7981 2.68379 10.5372L5.40723 7.81377C5.47988 7.74111 5.47988 7.62158 5.40723 7.54893L4.47441 6.61611C4.43917 6.58122 4.39159 6.56165 4.34199 6.56165C4.2924 6.56165 4.24481 6.58122 4.20957 6.61611L1.48613 9.33955C-0.49668 11.3224 -0.49668 14.531 1.48613 16.5114C3.46895 18.4919 6.67754 18.4942 8.65801 16.5114L11.3814 13.788C11.4541 13.7153 11.4541 13.5958 11.3814 13.5231L10.4533 12.595ZM16.5143 1.48564C14.5314 -0.497168 11.3229 -0.497168 9.34238 1.48564L6.6166 4.20908C6.58171 4.24432 6.56213 4.29191 6.56213 4.3415C6.56213 4.3911 6.58171 4.43869 6.6166 4.47393L7.54707 5.4044C7.61973 5.47705 7.73926 5.47705 7.81191 5.4044L10.5354 2.68096C11.7963 1.42002 13.9244 1.28643 15.3166 2.68096C16.7111 4.07549 16.5775 6.20127 15.3166 7.46221L12.5932 10.1856C12.5583 10.2209 12.5387 10.2685 12.5387 10.3181C12.5387 10.3677 12.5583 10.4153 12.5932 10.4505L13.526 11.3833C13.5986 11.456 13.7182 11.456 13.7908 11.3833L16.5143 8.65986C18.4947 6.67705 18.4947 3.46846 16.5143 1.48564V1.48564ZM11.2994 5.72549C11.2642 5.69059 11.2166 5.67102 11.167 5.67102C11.1174 5.67102 11.0698 5.69059 11.0346 5.72549L5.72598 11.0317C5.69108 11.067 5.67151 11.1146 5.67151 11.1642C5.67151 11.2138 5.69108 11.2613 5.72598 11.2966L6.6541 12.2247C6.72676 12.2974 6.84629 12.2974 6.91895 12.2247L12.2252 6.91846C12.2979 6.8458 12.2979 6.72627 12.2252 6.65361L11.2994 5.72549Z" fill="#282825"/>
</svg>
